# xmcd CD database file
#
# Track frame offsets:
#	150
#	21212
#	41507
#	62557
#
# Disc length: 1102 seconds
#
# Revision: 4
# Processed by: cddbd v1.5.1PL2 Copyright (c) Steve Scherf et al.
# Submitted via: CDex 1.51
#
DISCID=2a044c04
DTITLE=本田修司 - 今、明日のために
DYEAR=1995
DGENRE=Anime
TTITLE0=今、明日のために
TTITLE1=LONELY BABY
TTITLE2=今、明日のために(オリジナル・カラオケ)
TTITLE3=LONELY BABY(オリジナル・カラオケ)
EXTD=YEAR: 1995
EXTT0=
EXTT1=
EXTT2=
EXTT3=
PLAYORDER=
